<svg width="167" height="72" viewBox="0 0 167 72" fill="none" xmlns="http://www.w3.org/2000/svg">
<g clip-path="url(#clip0_6041_5685)">
<path d="M31.3214 0.701538V17.2614H30.4952V14.7155C29.8319 16.3199 28.1605 17.51 26.2161 17.51C23.4456 17.51 21.2549 15.2277 21.2549 12.437C21.2549 9.64621 23.4456 7.36391 26.2161 7.36391C28.1605 7.36391 29.8357 8.55402 30.4952 10.1584V0.701538H31.3214ZM26.3185 16.7492C28.6759 16.7492 30.5369 14.8586 30.5369 12.4332C30.5369 10.0078 28.6759 8.11714 26.3185 8.11714C23.961 8.11714 22.0811 10.0078 22.0811 12.4332C22.0811 14.8586 23.9231 16.7492 26.3185 16.7492Z" fill="#000000"/>
<path d="M34.0308 3.84629C34.0308 3.51863 34.3188 3.22864 34.6523 3.22864C35.0048 3.22864 35.2739 3.51487 35.2739 3.84629C35.2739 4.19655 35.0048 4.46394 34.6523 4.46394C34.3226 4.46394 34.0308 4.19655 34.0308 3.84629ZM35.0655 7.60494V17.2614H34.2392V7.60494H35.0655Z" fill="#000000"/>
<path d="M42.1573 22.6433C39.6331 22.6433 37.3818 20.8958 37.3818 18.2256H38.1891C38.2725 20.4853 40.0311 21.8826 42.1573 21.8826C44.4921 21.8826 46.334 20.2593 46.334 17.8151V14.7117C45.6708 16.3161 43.9993 17.5063 42.055 17.5063C39.2844 17.5063 37.0938 15.2239 37.0938 12.4332C37.0938 9.64247 39.2844 7.36017 42.055 7.36017C43.9993 7.36017 45.6746 8.55028 46.334 10.1547V7.60874H47.1603V17.8188C47.1603 20.6322 44.9279 22.6471 42.1573 22.6471V22.6433ZM42.1384 16.7455C44.5148 16.7455 46.3757 14.8549 46.3757 12.4294C46.3757 10.004 44.5148 8.1134 42.1384 8.1134C39.762 8.1134 37.92 10.004 37.92 12.4294C37.92 14.8549 39.762 16.7455 42.1384 16.7455Z" fill="#000000"/>
<path d="M49.8662 3.84629C49.8662 3.51863 50.1543 3.22864 50.4878 3.22864C50.8403 3.22864 51.1094 3.51487 51.1094 3.84629C51.1094 4.19655 50.8403 4.46394 50.4878 4.46394C50.158 4.46394 49.8662 4.19655 49.8662 3.84629ZM50.9009 7.60494V17.2614H50.0747V7.60494H50.9009Z" fill="#000000"/>
<path d="M52.7388 7.60496H54.2472V4.11371H55.0735V7.60496H57.1618V8.3243H55.0735V17.2614H54.2472V8.3243H52.7388V7.60496Z" fill="#000000"/>
<path d="M67.6881 7.60487V17.2613H66.8619V14.7154C66.1986 16.3198 64.5272 17.5099 62.5828 17.5099C59.8123 17.5099 57.6216 15.2276 57.6216 12.4369C57.6216 9.64613 59.8123 7.36383 62.5828 7.36383C64.5272 7.36383 66.2024 8.55394 66.8619 10.1583V7.6124H67.6881V7.60487ZM62.6624 16.7491C65.0388 16.7491 66.8998 14.8585 66.8998 12.4331C66.8998 10.0077 65.0388 8.11707 62.6624 8.11707C60.286 8.11707 58.444 10.0077 58.444 12.4331C58.444 14.8585 60.286 16.7491 62.6624 16.7491Z" fill="#000000"/>
<path d="M71.4327 0.701538V17.2614H70.6064V0.701538H71.4327Z" fill="#000000"/>
<path d="M42.0547 59.5932H35.2515V27.2643H42.0547V29.3659C42.5247 28.8574 42.934 28.4582 43.2903 28.1644C44.6434 27.061 46.3338 26.5073 48.3274 26.5073C49.9798 26.5073 51.693 26.9894 53.4289 27.9422L54.058 28.2887L50.825 34.4314L50.1428 33.9794C49.1763 33.3392 48.2705 33.0153 47.4481 33.0153C46.2314 33.0153 45.155 33.422 44.1658 34.2544C43.2789 35.0076 42.6763 36.1864 42.3693 37.7531C42.1608 38.9244 42.0547 40.5665 42.0547 42.619V59.597V59.5932ZM36.7258 58.1282H40.5804V42.6153C40.5804 40.4798 40.6941 38.7512 40.9215 37.482C41.2967 35.5725 42.0661 34.115 43.2107 33.1358C44.4652 32.0775 45.8903 31.5465 47.4481 31.5465C48.3501 31.5465 49.2938 31.8101 50.2603 32.3374L52.072 28.8951C50.7833 28.2812 49.525 27.9724 48.3236 27.9724C46.6597 27.9724 45.318 28.4055 44.2302 29.2943C43.6655 29.7651 42.8772 30.6125 41.888 31.8063L40.5804 33.3844V28.7369H36.7258V58.1357V58.1282Z" fill="#000000"/>
<path d="M35.9907 27.9987H41.3196V31.3356C42.343 30.104 43.1578 29.2341 43.7642 28.7256C44.9809 27.7351 46.5007 27.238 48.3275 27.238C49.8588 27.238 51.443 27.6862 53.0728 28.5787L50.5561 33.3656C49.4608 32.6387 48.4261 32.2771 47.4558 32.2771C46.0686 32.2771 44.8141 32.7479 43.696 33.6932C42.6727 34.5632 41.9943 35.8701 41.6532 37.61C41.4333 38.8416 41.3234 40.51 41.3234 42.6153V58.8626H35.9945V27.9987H35.9907Z" fill="#000000"/>
<path d="M78.2708 26.0027L87.5415 46.7469L96.7742 26.0027H102.725L87.5074 58.8589L72.29 26.0027H78.2746H78.2708Z" fill="#000000"/>
<path d="M87.5067 60.6139L71.1372 25.2721H78.7515L87.5408 44.9391L96.296 25.2721H103.876L87.5067 60.6139ZM73.4378 26.7371L87.5067 57.1076L101.576 26.7371H97.2587L87.5446 48.5584L77.7926 26.7371H73.4378Z" fill="#000000"/>
<path d="M48.4448 58.8588L63.5863 25.965L78.8832 58.7873L72.9327 58.8023L63.6508 38.0808L54.4294 58.8475L48.4448 58.8626V58.8588Z" fill="#000000"/>
<path d="M47.2964 59.597L63.5825 24.2175L80.0354 59.5217L72.4552 59.5405L63.6545 39.8924L54.9107 59.5819L47.2964 59.6008V59.597ZM63.5901 27.7201L49.5932 58.1244L53.948 58.1131L63.6469 36.2693L73.4103 58.0679L77.7272 58.0566L63.5863 27.7163L63.5901 27.7201Z" fill="#000000"/>
<path d="M114.067 25.8069H108.359V58.8627H114.067V25.8069Z" fill="#000000"/>
<path d="M114.802 59.5933H107.62V25.0725H114.802V59.5933ZM109.094 58.1283H113.328V26.5376H109.094V58.1283Z" fill="#000000"/>
<path d="M131.332 31.0494V58.8588H125.624V31.0494H122.145V25.8068H125.624V13.9584H131.332V25.8068H137.195V31.0494H131.332Z" fill="#000000"/>
<path d="M132.071 59.5932H124.889V31.7837H121.409V25.0762H124.889V13.2278H132.071V25.0762H137.934V31.7837H132.071V59.5932ZM126.363 58.1282H130.596V30.3187H136.46V26.5412H130.596V14.6928H126.363V26.5412H122.884V30.3187H126.363V58.1282Z" fill="#000000"/>
<path d="M152.267 45.1651L142.632 26.3116H146.798L154.192 41.2257L160.969 26.3116H165.036L149.561 58.8777H145.494L152.271 45.1651H152.267Z" fill="#000000"/>
<path d="M149.887 59.3937H144.66L151.691 45.1688L141.791 25.7956H147.124L154.173 40.0167L160.635 25.7956H165.854L149.89 59.3937H149.887ZM146.324 58.3617H149.227L164.213 26.8238H161.303L154.211 42.427L146.476 26.8238H143.478L152.847 45.1575L146.324 58.358V58.3617Z" fill="#000000"/>
<path d="M150.016 59.6008H144.323L151.452 45.1726L141.446 25.5922H147.245L154.158 39.5346L160.495 25.5922H166.177L150.016 59.6046V59.6008ZM146.654 58.1584H149.095L163.884 27.0347H161.432L154.215 42.9166L146.343 27.0347H143.815L153.078 45.1613L146.654 58.1584Z" fill="#000000"/>
<path d="M150.346 60.1168H143.493L150.876 45.1763L140.605 25.0762H147.575L154.143 38.3257L160.166 25.0762H166.999L150.349 60.1168H150.346ZM145.157 59.0848H149.686L165.358 26.1044H160.829L154.177 40.7398L146.923 26.1044H142.292L152.032 45.1688L145.153 59.0848H145.157ZM149.425 58.6705H145.824L152.498 45.1613L142.97 26.5149H146.669L154.2 41.7039L161.102 26.5149H164.706L149.428 58.6705H149.425ZM147.488 57.6386H148.765L163.065 27.5468H161.769L154.238 44.1218L146.021 27.5468H144.66L153.658 45.1537L147.488 57.6386Z" fill="#000000"/>
<path d="M116.689 12.7345L117.974 12.3541L121.2 11.7929L119.096 13.2391L117.129 14.2221" fill="#953193"/>
<path d="M101.348 17.864L101.329 18.026L101.522 18.2783L104.982 17.8941L104.857 17.333C104.846 17.2878 104.361 16.7266 104.361 16.7266L103.106 17.1409" fill="#953193"/>
<path d="M109.58 8.12467C111.407 7.82714 113.063 8.20753 114.545 9.26582C116.076 10.3618 116.994 11.8155 117.293 13.6308C117.6 15.4875 117.198 17.1597 116.091 18.6398C115.034 20.1576 113.567 21.0653 111.699 21.3703C109.872 21.6678 108.212 21.2649 106.722 20.1651C105.187 19.073 104.27 17.5966 103.963 15.7361C103.671 13.9622 104.073 12.3164 105.176 10.7911C106.283 9.31102 107.753 8.4222 109.58 8.12467Z" fill="#000000"/>
<mask id="mask0_6041_5685" style="mask-type:luminance" maskUnits="userSpaceOnUse" x="103" y="8" width="15" height="14">
<path d="M109.58 8.12467C111.407 7.82714 113.063 8.20753 114.545 9.26582C116.076 10.3618 116.994 11.8155 117.293 13.6308C117.6 15.4875 117.198 17.1597 116.091 18.6398C115.034 20.1576 113.567 21.0653 111.699 21.3703C109.872 21.6678 108.212 21.2649 106.722 20.1651C105.187 19.073 104.27 17.5966 103.963 15.7361C103.671 13.9622 104.073 12.3164 105.176 10.7911C106.283 9.31102 107.753 8.4222 109.58 8.12467Z" fill="white"/>
</mask>
<g mask="url(#mask0_6041_5685)">
<path d="M105.327 7.82721L103.671 8.03435V7.82721H105.327Z" fill="#000000"/>
<path d="M108.416 7.82721L103.671 8.4185V8.03435L105.327 7.82721H108.416Z" fill="#000000"/>
<path d="M111.501 7.82721L103.671 8.80265V8.4185L108.416 7.82721H111.501Z" fill="#000000"/>
<path d="M114.59 7.82721L103.671 9.1868V8.80265L111.501 7.82721H114.59Z" fill="#000000"/>
<path d="M117.058 7.82721L117.069 7.90253L103.671 9.57095V9.1868L114.59 7.82721H117.058Z" fill="#000000"/>
<path d="M117.069 7.90253L117.118 8.27914L103.671 9.95509V9.57094L117.069 7.90253Z" fill="#000000"/>
<path d="M117.118 8.27917L117.164 8.65956L103.671 10.3393V9.95512L117.118 8.27917Z" fill="#000000"/>
<path d="M117.164 8.65955L117.213 9.03616L103.671 10.7234V10.3393L117.164 8.65955Z" fill="#000000"/>
<path d="M117.213 9.03613L117.258 9.41652L103.671 11.1075V10.7234L117.213 9.03613Z" fill="#000000"/>
<path d="M117.258 9.41656L117.308 9.79695L103.671 11.4955V11.1076L117.258 9.41656Z" fill="#000000"/>
<path d="M117.308 9.79694L117.357 10.1736L103.671 11.8796V11.4955L117.308 9.79694Z" fill="#000000"/>
<path d="M117.357 10.1735L117.402 10.5539L103.671 12.2638V11.8796L117.357 10.1735Z" fill="#000000"/>
<path d="M117.402 10.5539L117.452 10.9305L103.671 12.6479V12.2637L117.402 10.5539Z" fill="#000000"/>
<path d="M117.452 10.9305L117.497 11.3109L103.671 13.0321V12.6479L117.452 10.9305Z" fill="#000000"/>
<path d="M117.497 11.3109L117.547 11.6875L103.671 13.4162V13.0321L117.497 11.3109Z" fill="#000000"/>
<path d="M117.547 11.6876L117.596 12.0679L103.671 13.8004V13.4162L117.547 11.6876Z" fill="#000000"/>
<path d="M117.596 12.0679L117.603 12.1244V12.4521L103.671 14.1845V13.8004L117.596 12.0679Z" fill="#000000"/>
<path d="M117.603 12.8362L103.671 14.5687V14.1845L117.603 12.4521V12.8362Z" fill="#000000"/>
<path d="M117.603 13.2204L103.671 14.9566V14.5687L117.603 12.8362V13.2204Z" fill="#000000"/>
<path d="M117.603 13.6045L103.671 15.3408V14.9566L117.603 13.2204V13.6045Z" fill="#000000"/>
<path d="M117.603 13.9887L103.671 15.7249V15.3408L117.603 13.6046V13.9887Z" fill="#000000"/>
<path d="M117.603 14.3728L103.671 16.109V15.7249L117.603 13.9886V14.3728Z" fill="#000000"/>
<path d="M117.603 14.757L103.671 16.4932V16.109L117.603 14.3728V14.757Z" fill="#000000"/>
<path d="M117.603 15.1411L103.671 16.8773V16.4932L117.603 14.757V15.1411Z" fill="#000000"/>
<path d="M117.603 15.529L103.671 17.2615V16.8773L117.603 15.1411V15.529Z" fill="#000000"/>
<path d="M117.603 15.9132L103.713 17.6419L103.671 17.3293V17.2615L117.603 15.5291V15.9132Z" fill="#000000"/>
<path d="M117.603 16.2974L103.758 18.0223L103.712 17.6419L117.603 15.9132V16.2974Z" fill="#000000"/>
<path d="M117.604 16.6815L103.808 18.3989L103.758 18.0223L117.604 16.2974V16.6815Z" fill="#000000"/>
<path d="M117.604 17.0655L103.853 18.7792L103.808 18.3988L117.604 16.6814V17.0655Z" fill="#000000"/>
<path d="M117.604 17.4498L103.903 19.1559L103.854 18.7793L117.604 17.0657V17.4498Z" fill="#000000"/>
<path d="M117.603 17.834L103.951 19.5363L103.902 19.1559L117.603 17.4498V17.834Z" fill="#000000"/>
<path d="M117.603 18.2181L103.997 19.9129L103.951 19.5362L117.603 17.8339V18.2181Z" fill="#000000"/>
<path d="M117.604 18.6022L104.046 20.2932L103.997 19.9129L117.604 18.2181V18.6022Z" fill="#000000"/>
<path d="M117.603 18.9901L104.091 20.6698L104.045 20.2932L117.603 18.6022V18.9901Z" fill="#000000"/>
<path d="M117.603 19.3743L104.14 21.0502L104.091 20.6698L117.603 18.9901V19.3743Z" fill="#000000"/>
<path d="M117.603 19.7585L104.19 21.4269L104.141 21.0503L117.603 19.3743V19.7585Z" fill="#000000"/>
<path d="M117.604 20.1427L105.354 21.668H104.221L104.19 21.427L117.604 19.7585V20.1427Z" fill="#000000"/>
<path d="M117.604 20.5268L108.44 21.6679H105.354L117.604 20.1426V20.5268Z" fill="#000000"/>
<path d="M117.603 20.9109L111.528 21.6679H108.439L117.603 20.5268V20.9109Z" fill="#000000"/>
<path d="M117.603 21.295L114.617 21.6679H111.528L117.603 20.9109V21.295Z" fill="#000000"/>
<path d="M114.617 21.6679L117.603 21.295V21.6679H114.617Z" fill="#000000"/>
</g>
<g opacity="0.23">
<path d="M114.397 19.3328C112.57 19.6303 112.324 16.4969 110.835 15.3972C109.3 14.305 106.969 15.5591 106.662 13.6986C106.37 11.9247 106.772 10.2789 107.875 8.75362C107.928 8.68583 107.977 8.61804 108.03 8.55402C106.9 9.00972 105.949 9.75543 105.176 10.7911C104.073 12.3164 103.671 13.9622 103.963 15.7361C104.27 17.5966 105.187 19.0692 106.722 20.1651C108.212 21.2686 109.872 21.6678 111.699 21.3703C113.446 21.0879 114.837 20.2744 115.879 18.9298C115.417 19.1106 114.924 19.2462 114.397 19.3328Z" fill="#282828"/>
</g>
<path d="M108.625 18.3799C108.208 18.4477 107.81 18.5042 107.423 18.557C103.106 19.1181 99.9682 18.798 99.8355 18.7867C99.1836 18.7189 98.9259 17.9167 99.4148 17.4836C99.5134 17.397 100.385 16.6776 103.148 15.9131C103.554 15.8001 103.978 16.0449 104.08 16.4517C104.179 16.8471 103.944 17.2463 103.55 17.3555C103.538 17.3555 103.531 17.3631 103.52 17.3631C107.204 17.2426 113.177 16.5082 118.517 13.45C118.362 13.4801 118.21 13.514 118.058 13.5479C117.676 13.6383 117.289 13.4161 117.172 13.0433C117.039 12.629 117.293 12.1883 117.721 12.0904C119.442 11.6874 121.458 11.5519 121.557 11.5443C122.3 11.4954 122.656 12.4294 122.068 12.8813C117.672 16.2709 112.525 17.7472 108.625 18.3799Z" fill="#953193"/>
<path d="M15.5963 71.7015C7.88723 71.7015 0.955109 66.7716 0.776973 58.7572H7.70909C8.06915 63.2125 11.3552 65.7058 15.5963 65.7058C20.3757 65.7058 24.0217 62.5572 24.0217 56.7987V51.9291C22.229 54.8403 18.4048 56.859 14.4593 56.859C6.39392 56.8552 0 50.2042 0 41.7114C0 33.2187 6.39392 26.5676 14.4631 26.5676C18.4086 26.5676 22.2328 28.5863 24.0255 31.4976V27.2832H31.0789V56.6782C31.0789 65.7058 23.9687 71.7015 15.6001 71.7015H15.5963ZM15.657 50.6787C20.6182 50.6787 24.3818 46.8184 24.3818 41.7114C24.3818 36.6045 20.6182 32.7442 15.657 32.7442C10.6957 32.7442 6.99276 36.6045 6.99276 41.7114C6.99276 46.8184 10.7563 50.6787 15.657 50.6787Z" fill="#000000"/>
</g>
<defs>
<clipPath id="clip0_6041_5685">
<rect width="167" height="71" fill="white" transform="translate(0 0.701538)"/>
</clipPath>
</defs>
</svg>
