<?xml version="1.0" encoding="utf-8"?>
<!-- Generator: Adobe Illustrator 25.2.1, SVG Export Plug-In . SVG Version: 6.00 Build 0)  -->
<svg version="1.1" id="Layer_1" xmlns="http://www.w3.org/2000/svg" xmlns:xlink="http://www.w3.org/1999/xlink" x="0px" y="0px"
	 viewBox="0 0 589 159.3" style="enable-background:new 0 0 589 159.3;" xml:space="preserve">
<style type="text/css">
	.st0{fill:#E3214B;}
	.st1{fill-rule:evenodd;clip-rule:evenodd;fill:url(#SVGID_1_);}
	.st2{enable-background:new    ;}
	.st3{fill:#FFFFFF;}
</style>
<g id="danish">
	<g id="umair">
		<rect x="375.1" y="104.4" class="st0" width="154.9" height="42.5"/>
		
			<linearGradient id="SVGID_1_" gradientUnits="userSpaceOnUse" x1="7.3221" y1="91.6099" x2="150.45" y2="91.6099" gradientTransform="matrix(1 0 0 -1 0 161)">
			<stop  offset="0.19" style="stop-color:#E3214B"/>
			<stop  offset="0.26" style="stop-color:#DA2251"/>
			<stop  offset="0.76" style="stop-color:#9B277A"/>
			<stop  offset="1" style="stop-color:#82298A"/>
		</linearGradient>
		<path class="st1" d="M86.5,112.2c-2,0-3.7-1.4-4.1-3.4l0,0h-7.1l0,0c-0.4,2-2.1,3.4-4.1,3.4h-7.8c-2.2,0.1-4.1-1.6-4.2-3.8
			c0-0.1,0-0.3,0-0.4c0-1.1,0.3-2.1,1-2.9c0.8-0.9,1.9-1.4,3.1-1.3h7.7c2,0,3.7,1.4,4.1,3.4l0,0h7.1l0,0c0.4-2,2.1-3.4,4.1-3.4H133
			c-7.4,5.5-16.3,8.5-25.5,8.5L86.5,112.2z M49.7,112.2c-2.2,0.1-4.1-1.6-4.2-3.8c0-0.1,0-0.3,0-0.4c0-1.1,0.3-2.1,1-2.9
			c1.6-1.7,4.3-1.8,6-0.2s1.8,4.3,0.2,6C51.9,111.7,50.8,112.2,49.7,112.2L49.7,112.2z M65.1,99.4c-2,0-3.7-1.4-4.1-3.4l0,0h-8.6
			l0,0c-0.4,2-2.1,3.4-4.1,3.4H29.8c-2.3-0.1-4.1-2.1-4-4.4c0.1-2.2,1.8-3.9,4-4h18.4c2,0,3.7,1.4,4.1,3.4l0,0h8.6l0,0
			c0.4-2,2.1-3.4,4.1-3.4h79.5c-1.8,3.1-4,5.9-6.5,8.5L65.1,99.4z M55.5,86.5c-2.2,0.1-4.1-1.6-4.2-3.8c0-0.1,0-0.3,0-0.4
			c0-1.1,0.3-2.1,1-2.9c0.8-0.9,2-1.4,3.2-1.4h94c-0.6,2.9-1.5,5.7-2.7,8.5L55.5,86.5z M78,73.6c-2,0-3.7-1.4-4.1-3.3l0,0h-7.1l0,0
			c-0.4,2-2.1,3.3-4.1,3.3H42.4c-2.3-0.1-4.1-2.1-4-4.4c0.1-2.2,1.8-3.9,4-4h20.2c2,0,3.7,1.4,4.1,3.4l0,0h7.1l0,0
			c0.4-2,2.2-3.4,4.2-3.4h72.2c0.3,2.8,0.3,5.7,0,8.5L78,73.6z M28.5,73.6c-2.3-0.1-4.1-2.1-4-4.4c0.1-2.2,1.8-3.9,4-4
			c2.3,0.1,4.1,2.1,4,4.4C32.4,71.8,30.7,73.5,28.5,73.6z M65.7,60.8c-2,0-3.7-1.4-4.1-3.3l0,0H51.3l0,0c-0.4,1.9-2.1,3.3-4.1,3.3
			H11.6c-2.3,0-4.2-1.9-4.2-4.2c0-2.3,1.9-4.2,4.2-4.2h35.6c2,0,3.7,1.4,4.1,3.3v0h10.3v0c0.4-2,2.1-3.3,4.1-3.3h81.1
			c1.2,2.7,2.1,5.6,2.7,8.5H65.7z M97.1,47.9c-2,0-3.7-1.4-4.1-3.3l0,0h-7.5l0,0c-0.4,1.9-2.1,3.3-4.1,3.3H58.8
			c-2.3,0-4.2-1.9-4.2-4.2c0-2.3,1.9-4.2,4.2-4.2h22.5c2,0,3.7,1.4,4.1,3.3l0,0H93l0,0c0.4-2,2.1-3.3,4.1-3.3h41
			c2.5,2.5,4.7,5.4,6.4,8.5H97.1z M78.5,35c-2,0-3.7-1.4-4.1-3.4l0,0H62.4l0,0c-0.4,2-2.2,3.3-4.2,3.4h-7.8
			c-2.2,0.1-4.1-1.6-4.2-3.8c0-0.1,0-0.3,0-0.4c-0.1-2.2,1.6-4.1,3.8-4.2c0.1,0,0.3,0,0.4,0h7.8c2,0,3.7,1.4,4.1,3.4V30h11.9v0
			c0.4-1.9,2.1-3.3,4.1-3.4h29.1c0.2,0,18.3,3.2,25.5,8.5L78.5,35z M36.3,35c-2.2,0.1-4.1-1.6-4.2-3.8c0-0.1,0-0.3,0-0.4
			c0-2.3,1.9-4.2,4.2-4.2s4.2,1.9,4.2,4.2c0.1,2.2-1.6,4.1-3.8,4.2C36.6,35,36.4,35,36.3,35z"/>
		<path d="M180.9,47.4h15.7c3.7-0.1,7.4,0.8,10.8,2.4c3,1.5,5.5,3.9,7.3,6.8c3.5,6.2,3.5,13.8,0,20c-1.7,2.9-4.2,5.3-7.3,6.8
			c-3.3,1.7-7,2.5-10.8,2.4h-15.7V47.4z M196.3,82.3c3.1,0.1,6.1-0.6,8.9-2c2.4-1.3,4.4-3.2,5.8-5.5c2.8-5.1,2.8-11.2,0-16.3
			c-1.4-2.4-3.4-4.3-5.9-5.5c-2.7-1.4-5.8-2.1-8.9-2h-11.3v31.4H196.3z"/>
		<path d="M225.4,49.8c-0.5-0.5-0.8-1.2-0.8-2c0-0.7,0.3-1.4,0.8-1.9c0.5-0.5,1.2-0.8,2-0.8c0.7,0,1.5,0.3,2,0.8
			c0.5,0.5,0.8,1.2,0.8,1.9c0,1.6-1.3,2.9-2.9,2.8C226.6,50.6,225.8,50.3,225.4,49.8L225.4,49.8z M225.4,57h3.9v28.9h-3.9V57z"/>
		<path d="M267,57v25.3c0,4.9-1.2,8.6-3.6,10.9c-2.4,2.4-6,3.5-10.9,3.5c-2.6,0-5.2-0.4-7.6-1.2c-2.2-0.7-4.2-1.8-5.9-3.3l2-3
			c1.5,1.3,3.2,2.3,5.1,2.9c2,0.7,4.2,1,6.3,1c3.7,0,6.4-0.8,8.1-2.6c1.7-1.7,2.6-4.3,2.6-7.9v-3.6c-1.2,1.8-2.8,3.2-4.8,4.2
			c-2,1-4.3,1.5-6.5,1.4c-2.6,0-5.1-0.6-7.4-1.8c-2.2-1.1-4-2.9-5.2-5c-2.5-4.5-2.5-10,0-14.5c1.2-2.1,3-3.8,5.2-4.9
			c2.3-1.2,4.8-1.8,7.4-1.8c2.3,0,4.6,0.5,6.6,1.5c2,1,3.6,2.5,4.8,4.3V57H267z M257.9,80c1.6-0.9,3-2.2,3.9-3.8
			c0.9-1.7,1.4-3.6,1.4-5.5c0-1.9-0.5-3.8-1.4-5.5c-0.9-1.6-2.3-2.9-3.9-3.7c-3.6-1.8-7.8-1.8-11.3,0c-1.6,0.8-3,2.1-3.9,3.7
			c-1.9,3.4-1.9,7.6,0,11c0.9,1.6,2.3,2.9,3.9,3.8c1.7,0.9,3.7,1.4,5.6,1.3C254.2,81.4,256.1,80.9,257.9,80L257.9,80z"/>
		<path d="M277.9,49.8c-0.5-0.5-0.8-1.2-0.8-2c0-0.7,0.3-1.4,0.8-1.9c0.5-0.5,1.2-0.8,2-0.8c0.7,0,1.5,0.3,2,0.8
			c0.5,0.5,0.8,1.2,0.8,1.9c0,1.6-1.2,2.8-2.8,2.9c0,0,0,0-0.1,0C279.1,50.6,278.4,50.3,277.9,49.8z M277.9,57h3.9v28.9h-3.9V57z"/>
		<path d="M307.9,84.1c-0.8,0.7-1.7,1.2-2.7,1.5c-1.1,0.3-2.2,0.5-3.4,0.5c-4.2,0.5-8-2.6-8.5-6.8c-0.1-0.5-0.1-1.1,0-1.6V60.3h-5.2
			V57h5.2v-6.3h3.9V57h8.8v3.3h-8.8v17.2c-0.1,1.4,0.4,2.8,1.3,3.9c1,0.9,2.3,1.4,3.7,1.3c0.8,0,1.6-0.1,2.3-0.4
			c0.7-0.2,1.4-0.6,2-1.1L307.9,84.1z"/>
		<path d="M333.8,59.6c2,1.9,3,4.7,3,8.4v17.9h-3.7v-4.5c-0.9,1.5-2.3,2.8-3.9,3.5c-1.9,0.9-4,1.3-6.1,1.3c-2.8,0.1-5.5-0.7-7.7-2.3
			c-3.4-2.8-3.8-7.8-1-11.2c0.2-0.3,0.5-0.6,0.8-0.8c1.8-1.5,4.6-2.2,8.5-2.2h9.2v-1.8c0.1-2.1-0.6-4.2-2.1-5.7
			c-1.4-1.3-3.4-2-6.1-2c-1.8,0-3.6,0.3-5.3,0.9c-1.6,0.5-3.1,1.4-4.3,2.5l-1.8-2.9c1.6-1.3,3.3-2.3,5.3-2.9c2.1-0.7,4.3-1,6.5-1
			C328.9,56.8,331.8,57.7,333.8,59.6z M329.4,81.6c1.6-1.1,2.8-2.6,3.5-4.4v-4.8h-9.1c-5,0-7.4,1.7-7.4,5.2c-0.1,1.6,0.7,3.1,1.9,4
			c1.6,1.1,3.5,1.6,5.4,1.5C325.7,83.1,327.7,82.6,329.4,81.6L329.4,81.6z"/>
		<path d="M347.4,45.1h3.9v40.8h-3.9V45.1z"/>
		<path d="M404.5,66.6h3.9v14.7c-1.9,1.6-4.1,2.8-6.4,3.6c-2.5,0.8-5.1,1.3-7.8,1.3c-3.6,0.1-7.2-0.8-10.4-2.5c-3-1.6-5.5-4-7.2-7
			c-3.5-6.2-3.5-13.8,0-20.1c1.7-3,4.2-5.4,7.2-7c3.2-1.7,6.8-2.6,10.4-2.5c2.8,0,5.5,0.4,8.1,1.4c2.4,0.9,4.5,2.3,6.2,4.2l-2.5,2.6
			c-3.1-3-7.3-4.7-11.6-4.5c-2.9,0-5.8,0.7-8.4,2.1c-2.5,1.3-4.5,3.3-5.9,5.7c-2.9,5.1-2.9,11.2,0,16.3c1.4,2.4,3.4,4.4,5.9,5.7
			c5.9,3.1,12.9,2.7,18.5-0.9L404.5,66.6z"/>
		<path d="M426.9,58.2c2.1-1.1,4.4-1.6,6.7-1.5v3.8l-0.9-0.1c-2.7-0.1-5.3,0.9-7.1,2.8c-1.7,1.9-2.6,4.5-2.6,7.8v14.7h-3.9V57h3.7
			v5.7C423.7,60.8,425.1,59.2,426.9,58.2z"/>
		<path d="M459.4,59.6c2,1.9,3,4.7,3,8.4v17.9h-3.7v-4.5c-0.9,1.5-2.3,2.8-3.9,3.5c-1.9,0.9-4,1.3-6.1,1.3c-2.8,0.1-5.5-0.7-7.7-2.3
			c-3.4-2.8-3.8-7.8-1-11.2c0.2-0.3,0.5-0.6,0.8-0.8c1.8-1.5,4.6-2.2,8.5-2.2h9.2v-1.8c0.1-2.1-0.6-4.2-2.1-5.7
			c-1.4-1.3-3.4-2-6.1-2c-1.8,0-3.6,0.3-5.3,0.9c-1.6,0.5-3.1,1.4-4.3,2.5l-1.7-2.9c1.6-1.3,3.3-2.3,5.3-2.9c2.1-0.7,4.3-1,6.5-1
			C454.5,56.8,457.4,57.7,459.4,59.6z M455,81.6c1.6-1,2.8-2.6,3.5-4.4v-4.8h-9.1c-4.9,0-7.4,1.7-7.4,5.2c-0.1,1.6,0.7,3.1,1.9,4
			c1.6,1.1,3.5,1.6,5.4,1.5C451.3,83.1,453.3,82.6,455,81.6L455,81.6z"/>
		<path d="M496.8,57l-12.9,28.9h-4L467.1,57h4.1L482,81.6L492.9,57H496.8z"/>
		<path d="M502.2,49.8c-0.5-0.5-0.8-1.2-0.8-2c0-0.7,0.3-1.4,0.8-1.9c0.5-0.5,1.2-0.8,2-0.8c0.7,0,1.5,0.3,2,0.8
			c0.5,0.5,0.8,1.2,0.8,1.9c0,1.6-1.3,2.9-2.9,2.8C503.4,50.6,502.7,50.3,502.2,49.8L502.2,49.8z M502.3,57h3.9v28.9h-3.9V57z"/>
		<path d="M532.3,84.1c-0.8,0.7-1.7,1.2-2.7,1.5c-1.1,0.3-2.2,0.5-3.4,0.5c-4.2,0.5-8-2.6-8.5-6.8c-0.1-0.5-0.1-1.1,0-1.6V60.3h-5.2
			V57h5.2v-6.3h3.9V57h8.8v3.3h-8.8v17.2c-0.1,1.4,0.4,2.8,1.3,3.9c1,0.9,2.3,1.4,3.7,1.3c0.8,0,1.6-0.1,2.3-0.4
			c0.7-0.2,1.4-0.6,2-1.1L532.3,84.1z"/>
		<path d="M563.1,57l-14.5,32.3c-0.8,2.2-2.2,4.2-4.1,5.8c-1.6,1.2-3.6,1.8-5.6,1.7c-1.3,0-2.6-0.2-3.9-0.7c-1.2-0.4-2.3-1.1-3.1-2
			l1.8-2.9c1.4,1.4,3.3,2.2,5.3,2.2c1.2,0,2.4-0.4,3.4-1.1c1.1-1,2-2.3,2.6-3.7l1.3-2.8L533.4,57h4.1l10.9,24.6L559.2,57H563.1z"/>
		<circle class="st0" cx="363.8" cy="82" r="4.6"/>
		<g class="st2">
			<path class="st3" d="M399.8,137.3l-4.8-6.9c-0.6,0-1.1,0.1-1.4,0.1h-5.5v6.8h-3.2v-22.4h8.7c2.9,0,5.2,0.7,6.8,2.1
				c1.7,1.4,2.5,3.3,2.5,5.7c0,1.7-0.4,3.2-1.3,4.4s-2.1,2.1-3.6,2.7l5.3,7.5H399.8z M398.1,126.5c1.1-0.9,1.6-2.1,1.6-3.7
				s-0.5-2.9-1.6-3.7c-1.1-0.9-2.6-1.3-4.6-1.3h-5.4v10.1h5.4C395.5,127.8,397.1,127.4,398.1,126.5z"/>
			<path class="st3" d="M421.3,129.9h-13.8c0.2,1.5,0.8,2.7,2,3.6c1.1,0.9,2.5,1.4,4.2,1.4c2,0,3.7-0.7,4.9-2l1.7,2
				c-0.8,0.9-1.7,1.6-2.9,2c-1.1,0.5-2.4,0.7-3.8,0.7c-1.8,0-3.4-0.4-4.8-1.1s-2.5-1.8-3.2-3.1c-0.8-1.3-1.1-2.8-1.1-4.5
				c0-1.6,0.4-3.1,1.1-4.4c0.7-1.3,1.7-2.4,3-3.1c1.3-0.7,2.7-1.1,4.4-1.1s3.1,0.4,4.3,1.1c1.3,0.7,2.3,1.8,3,3.1
				c0.7,1.3,1.1,2.8,1.1,4.5C421.4,129.2,421.4,129.5,421.3,129.9z M409.3,124.2c-1,0.9-1.6,2.1-1.7,3.5h10.9
				c-0.2-1.4-0.8-2.6-1.7-3.5c-1-0.9-2.2-1.4-3.7-1.4S410.3,123.3,409.3,124.2z"/>
			<path class="st3" d="M424.9,137c-1.3-0.4-2.3-0.8-3-1.4l1.3-2.4c0.7,0.5,1.7,1,2.7,1.3c1.1,0.3,2.1,0.5,3.2,0.5
				c2.7,0,4-0.8,4-2.3c0-0.5-0.2-0.9-0.5-1.2c-0.4-0.3-0.8-0.5-1.4-0.7s-1.3-0.3-2.3-0.5c-1.4-0.2-2.5-0.5-3.3-0.7
				c-0.9-0.3-1.6-0.7-2.2-1.4c-0.6-0.7-0.9-1.6-0.9-2.8c0-1.5,0.6-2.8,1.9-3.7c1.3-0.9,3-1.4,5.2-1.4c1.1,0,2.3,0.1,3.4,0.4
				s2.1,0.7,2.8,1.1l-1.3,2.4c-1.4-0.9-3-1.3-4.9-1.3c-1.3,0-2.3,0.2-3,0.6c-0.7,0.4-1,1-1,1.7c0,0.6,0.2,1,0.6,1.3
				c0.4,0.3,0.9,0.6,1.4,0.7c0.6,0.1,1.4,0.3,2.4,0.5c1.4,0.2,2.5,0.5,3.3,0.8s1.6,0.7,2.2,1.4c0.6,0.6,0.9,1.5,0.9,2.7
				c0,1.5-0.7,2.8-2,3.7c-1.3,0.9-3.1,1.4-5.4,1.4C427.5,137.5,426.2,137.4,424.9,137z"/>
			<path class="st3" d="M441.2,136.4c-1.3-0.7-2.4-1.8-3.2-3.1c-0.8-1.3-1.1-2.8-1.1-4.5c0-1.7,0.4-3.2,1.1-4.5
				c0.8-1.3,1.8-2.3,3.2-3.1c1.3-0.7,2.9-1.1,4.5-1.1c1.7,0,3.2,0.4,4.5,1.1c1.3,0.7,2.4,1.8,3.1,3.1c0.8,1.3,1.1,2.8,1.1,4.5
				c0,1.7-0.4,3.2-1.1,4.5c-0.8,1.3-1.8,2.3-3.1,3.1c-1.3,0.7-2.8,1.1-4.5,1.1C444.1,137.5,442.6,137.2,441.2,136.4z M448.7,134.1
				c0.9-0.5,1.5-1.2,2-2.1c0.5-0.9,0.7-1.9,0.7-3.1c0-1.2-0.2-2.2-0.7-3.1c-0.5-0.9-1.2-1.6-2-2.1c-0.9-0.5-1.8-0.7-2.9-0.7
				s-2.1,0.2-2.9,0.7c-0.9,0.5-1.5,1.2-2,2.1c-0.5,0.9-0.8,1.9-0.8,3.1c0,1.2,0.3,2.2,0.8,3.1c0.5,0.9,1.2,1.6,2,2.1
				c0.9,0.5,1.8,0.8,2.9,0.8S447.8,134.6,448.7,134.1z"/>
			<path class="st3" d="M473,120.4v17h-2.9v-2.6c-0.6,0.9-1.4,1.6-2.4,2c-1,0.5-2.1,0.7-3.3,0.7c-2.3,0-4-0.6-5.3-1.9
				c-1.3-1.2-2-3.1-2-5.5v-9.8h3.1v9.4c0,1.6,0.4,2.9,1.2,3.7c0.8,0.8,1.9,1.3,3.4,1.3c1.6,0,2.9-0.5,3.8-1.5c0.9-1,1.4-2.4,1.4-4.2
				v-8.8H473z"/>
		</g>
		<g class="st2">
			<path class="st3" d="M482.6,121c1-0.5,2.3-0.8,3.8-0.8v3c-0.2,0-0.4,0-0.7,0c-1.7,0-3,0.5-3.9,1.5c-1,1-1.4,2.4-1.4,4.2v8.4h-3.1
				v-17h2.9v2.8C480.7,122.3,481.5,121.5,482.6,121z"/>
		</g>
		<g class="st2">
			<path class="st3" d="M491.2,136.4c-1.4-0.7-2.4-1.8-3.2-3.1c-0.8-1.3-1.2-2.8-1.2-4.5c0-1.7,0.4-3.2,1.2-4.5
				c0.8-1.3,1.8-2.3,3.2-3.1c1.4-0.7,2.9-1.1,4.6-1.1c1.5,0,2.9,0.3,4.1,0.9c1.2,0.6,2.1,1.5,2.8,2.7l-2.3,1.5
				c-0.5-0.8-1.2-1.4-2-1.8c-0.8-0.4-1.7-0.6-2.6-0.6c-1.1,0-2.1,0.2-3,0.7c-0.9,0.5-1.6,1.2-2.1,2.1c-0.5,0.9-0.8,1.9-0.8,3.1
				c0,1.2,0.3,2.2,0.8,3.2c0.5,0.9,1.2,1.6,2.1,2.1c0.9,0.5,1.9,0.7,3,0.7c1,0,1.8-0.2,2.6-0.6c0.8-0.4,1.5-1,2-1.8l2.3,1.5
				c-0.7,1.2-1.6,2.1-2.8,2.7c-1.2,0.6-2.6,0.9-4.1,0.9C494.1,137.5,492.5,137.2,491.2,136.4z"/>
		</g>
		<g class="st2">
			<path class="st3" d="M520.1,129.9h-13.8c0.2,1.5,0.8,2.7,2,3.6c1.1,0.9,2.5,1.4,4.2,1.4c2,0,3.7-0.7,4.9-2l1.7,2
				c-0.8,0.9-1.7,1.6-2.9,2c-1.1,0.5-2.4,0.7-3.8,0.7c-1.8,0-3.4-0.4-4.8-1.1s-2.5-1.8-3.2-3.1c-0.8-1.3-1.1-2.8-1.1-4.5
				c0-1.6,0.4-3.1,1.1-4.4c0.7-1.3,1.7-2.4,3-3.1c1.3-0.7,2.7-1.1,4.4-1.1s3.1,0.4,4.3,1.1c1.3,0.7,2.3,1.8,3,3.1
				c0.7,1.3,1.1,2.8,1.1,4.5C520.2,129.2,520.1,129.5,520.1,129.9z M508.1,124.2c-1,0.9-1.6,2.1-1.7,3.5h10.9
				c-0.2-1.4-0.8-2.6-1.7-3.5c-1-0.9-2.2-1.4-3.7-1.4C510.3,122.8,509.1,123.3,508.1,124.2z"/>
		</g>
	</g>
</g>
</svg>
