<svg width="21" height="20" viewBox="0 0 21 20" fill="none" xmlns="http://www.w3.org/2000/svg">
<rect x="0.5" width="20" height="20" rx="10" fill="#00C853"/>
<g clip-path="url(#clip0_135_8872)">
<path opacity="0.3" d="M14.25 9.99974V9.16641H10.5L11.0583 6.94141L9.25 8.74974V12.9164H13L14.25 9.99974Z" fill="white"/>
<path d="M9.24996 13.7503H13C13.3458 13.7503 13.6416 13.542 13.7666 13.242L15.025 10.3045C15.0625 10.2087 15.0833 10.1087 15.0833 10.0003V9.16699C15.0833 8.70866 14.7083 8.33366 14.25 8.33366H11.6208L12.0166 6.42949L12.0291 6.29616C12.0291 6.12533 11.9583 5.96699 11.8458 5.85449L11.4041 5.41699L8.65829 8.16283C8.50829 8.31283 8.41663 8.52116 8.41663 8.75033V12.917C8.41663 13.3753 8.79163 13.7503 9.24996 13.7503ZM9.24996 8.75033L11.0583 6.94199L10.5 9.16699H14.25V10.0003L13 12.917H9.24996V8.75033ZM5.91663 8.75033H7.58329V13.7503H5.91663V8.75033Z" fill="white"/>
</g>
<defs>
<clipPath id="clip0_135_8872">
<rect width="10" height="10" fill="white" transform="translate(5.5 5)"/>
</clipPath>
</defs>
</svg>
