<svg width="20" height="20" viewBox="0 0 20 20" fill="none" xmlns="http://www.w3.org/2000/svg">
<rect width="20" height="20" rx="10" fill="#D84315"/>
<g clip-path="url(#clip0_135_8875)">
<path opacity="0.3" d="M11.7554 8.92259L11.5858 8.62467C11.4483 8.38176 11.2604 8.18467 11.0312 8.02426L10.7516 7.83176L10.44 7.75842C10.2887 7.72634 10.1466 7.70801 9.99996 7.70801C9.85788 7.70801 9.71121 7.72634 9.56913 7.75842L9.22996 7.84092L8.96871 8.02426C8.74413 8.18009 8.55163 8.38634 8.41413 8.62467L8.24454 8.92259L8.19871 9.22051C8.18038 9.32592 8.16663 9.44051 8.16663 9.54134V11.3747C8.16663 11.4755 8.18038 11.5901 8.19871 11.6955L8.24454 11.9934L8.41413 12.2913C8.74413 12.8597 9.34913 13.208 9.99996 13.208C10.6508 13.208 11.2558 12.8551 11.5858 12.2913L11.7554 11.998L11.8012 11.7001C11.8195 11.5901 11.8333 11.4755 11.8333 11.3747V9.54134C11.8333 9.44051 11.8195 9.32592 11.8012 9.22051L11.7554 8.92259ZM10.9166 11.833H9.08329V10.9163H10.9166V11.833ZM10.9166 9.99967H9.08329V9.08301H10.9166V9.99967Z" fill="white"/>
<path d="M13.6667 8.16667H12.3788C12.1725 7.80917 11.8884 7.50208 11.5446 7.26833L12.2917 6.52125L11.6455 5.875L10.6509 6.86958C10.44 6.81917 10.2246 6.79167 10 6.79167C9.77546 6.79167 9.56004 6.81917 9.35379 6.86958L8.35462 5.875L7.70837 6.52125L8.45087 7.26833C8.11171 7.50208 7.82754 7.80917 7.62129 8.16667H6.33337V9.08333H7.29129C7.26837 9.23458 7.25004 9.38583 7.25004 9.54167V10H6.33337V10.9167H7.25004V11.375C7.25004 11.5308 7.26837 11.6821 7.29129 11.8333H6.33337V12.75H7.62129C8.09796 13.5704 8.98254 14.125 10 14.125C11.0175 14.125 11.9021 13.5704 12.3788 12.75H13.6667V11.8333H12.7088C12.7317 11.6821 12.75 11.5308 12.75 11.375V10.9167H13.6667V10H12.75V9.54167C12.75 9.38583 12.7317 9.23458 12.7088 9.08333H13.6667V8.16667ZM11.8334 10V11.375C11.8334 11.4758 11.8196 11.5904 11.8013 11.6958L11.7555 11.9938L11.5859 12.2917C11.2559 12.86 10.6509 13.2083 10 13.2083C9.34921 13.2083 8.74421 12.8554 8.41421 12.2917L8.24462 11.9983L8.19879 11.7004C8.18046 11.5904 8.16671 11.4758 8.16671 11.375V9.54167C8.16671 9.44083 8.18046 9.32625 8.19879 9.22083L8.24462 8.92292L8.41421 8.625C8.55171 8.38667 8.74421 8.18042 8.96879 8.02458L9.23004 7.84583L9.56921 7.76333C9.71129 7.72667 9.85796 7.70833 10 7.70833C10.1467 7.70833 10.2888 7.72667 10.4355 7.76333L10.7471 7.83667L11.0267 8.02917C11.2559 8.185 11.4438 8.38667 11.5813 8.62958L11.7555 8.9275L11.8013 9.22542C11.8196 9.32625 11.8334 9.44083 11.8334 9.54167V10ZM9.08337 10.9167H10.9167V11.8333H9.08337V10.9167ZM9.08337 9.08333H10.9167V10H9.08337V9.08333Z" fill="white"/>
</g>
<defs>
<clipPath id="clip0_135_8875">
<rect width="11" height="11" fill="white" transform="translate(4.5 4.5)"/>
</clipPath>
</defs>
</svg>
