<svg width="21" height="20" viewBox="0 0 21 20" fill="none" xmlns="http://www.w3.org/2000/svg">
<rect x="0.5" width="20" height="20" rx="10" fill="#E77443"/>
<g clip-path="url(#clip0_160_9712)">
<path opacity="0.3" d="M10.4999 6.33398C8.47867 6.33398 6.83325 7.9794 6.83325 10.0007C6.83325 12.0219 8.47867 13.6673 10.4999 13.6673C12.5212 13.6673 14.1666 12.0219 14.1666 10.0007C14.1666 7.9794 12.5212 6.33398 10.4999 6.33398ZM12.4249 11.9257L10.0416 10.459V7.70898H10.7291V10.0923L12.7916 11.3298L12.4249 11.9257Z" fill="white"/>
<path d="M10.5 5.41699C7.97913 5.41699 5.91663 7.47949 5.91663 10.0003C5.91663 12.5212 7.97913 14.5837 10.5 14.5837C13.0208 14.5837 15.0833 12.5212 15.0833 10.0003C15.0833 7.47949 13.0208 5.41699 10.5 5.41699ZM10.5 13.667C8.47871 13.667 6.83329 12.0216 6.83329 10.0003C6.83329 7.97908 8.47871 6.33366 10.5 6.33366C12.5212 6.33366 14.1666 7.97908 14.1666 10.0003C14.1666 12.0216 12.5212 13.667 10.5 13.667ZM10.7291 7.70866H10.0416V10.4587L12.425 11.9253L12.7916 11.3295L10.7291 10.092V7.70866Z" fill="white"/>
</g>
<defs>
<clipPath id="clip0_160_9712">
<rect width="11" height="11" fill="white" transform="translate(5 4.5)"/>
</clipPath>
</defs>
</svg>
