<svg width="21" height="20" viewBox="0 0 21 20" fill="none" xmlns="http://www.w3.org/2000/svg">
<rect x="0.5" width="20" height="20" rx="10" fill="#FFC107"/>
<g clip-path="url(#clip0_135_8884)">
<path opacity="0.3" d="M10.5 6C8.295 6 6.5 7.795 6.5 10C6.5 12.205 8.295 14 10.5 14C12.705 14 14.5 12.205 14.5 10C14.5 7.795 12.705 6 10.5 6ZM11 12.5H10V9.5H11V12.5ZM11 8.5H10V7.5H11V8.5Z" fill="white"/>
<path d="M11 7.5V8.5H10V7.5H11ZM11 9.5V12.5H10V9.5H11ZM10.5 5C7.74 5 5.5 7.24 5.5 10C5.5 12.76 7.74 15 10.5 15C13.26 15 15.5 12.76 15.5 10C15.5 7.24 13.26 5 10.5 5ZM10.5 14C8.295 14 6.5 12.205 6.5 10C6.5 7.795 8.295 6 10.5 6C12.705 6 14.5 7.795 14.5 10C14.5 12.205 12.705 14 10.5 14Z" fill="white"/>
<path d="M11 7.5V8.5H10V7.5H11ZM11 9.5V12.5H10V9.5H11ZM10.5 5C7.74 5 5.5 7.24 5.5 10C5.5 12.76 7.74 15 10.5 15C13.26 15 15.5 12.76 15.5 10C15.5 7.24 13.26 5 10.5 5ZM10.5 14C8.295 14 6.5 12.205 6.5 10C6.5 7.795 8.295 6 10.5 6C12.705 6 14.5 7.795 14.5 10C14.5 12.205 12.705 14 10.5 14Z" stroke="#F0BB00"/>
</g>
<defs>
<clipPath id="clip0_135_8884">
<rect width="12" height="12" fill="white" transform="translate(4.5 4)"/>
</clipPath>
</defs>
</svg>
